<svg width="80" height="64" viewBox="0 0 80 64" fill="none" xmlns="http://www.w3.org/2000/svg">
<path d="M27.8125 46.25C24.25 47.25 23.625 48.4375 24.375 51.0625" stroke="#4D3D2F" stroke-width="2" stroke-linecap="round"/>
<path d="M26.7453 52.1732C26.2682 51.867 25.7082 51.7157 25.1417 51.74C22.6938 51.74 21.3611 52.8742 21.3611 53.6964C21.3611 54.5187 22.2496 55.5867 24.4707 55.5867C26.6918 55.5867 28.0244 54.3013 27.8071 53.4507C27.5933 52.9256 27.2225 52.4794 26.7453 52.1732Z" fill="#EE6A29" stroke="#4D3D2F" stroke-width="2" stroke-linecap="round"/>
<path d="M50.1875 46.3125C52.0625 47.0625 53.125 48.6875 52.4375 51.125" stroke="#4D3D2F" stroke-width="2" stroke-linecap="round"/>
<path d="M54.3208 52.2571C53.8437 51.9508 53.2836 51.7995 52.7172 51.8239C50.2692 51.8239 48.9366 52.958 48.9366 53.7803C48.9366 54.6026 49.825 55.6706 52.0461 55.6706C54.2672 55.6706 55.5999 54.3852 55.3825 53.5346C55.1687 53.0095 54.7979 52.5633 54.3208 52.2571Z" fill="#EE6A29" stroke="#4D3D2F" stroke-width="2" stroke-linecap="round"/>
<path d="M58.6093 19.7612L59.352 19.6572C59.3233 19.4524 59.2114 19.2686 59.0426 19.1491C58.8738 19.0296 58.6632 18.9851 58.4605 19.0261L58.6093 19.7612ZM50.1649 21.343L50.2887 22.0827L50.1649 21.343ZM21.9709 21.0707L22.0821 20.329C21.6725 20.2676 21.2906 20.5498 21.2292 20.9595L21.9709 21.0707ZM21.122 25.3671L21.8632 25.4816L21.8632 25.4816L21.122 25.3671ZM38.7451 48.707L38.7639 47.9572L38.7545 47.957H38.7451V48.707ZM59.3278 27.5549L60.0778 27.5488L59.3278 27.5549ZM58.4605 19.0261C57.4058 19.2396 53.6336 20.002 50.0411 20.6033L50.2887 22.0827C53.9086 21.4768 57.7028 20.7099 58.7581 20.4963L58.4605 19.0261ZM50.0411 20.6033C46.4897 21.1977 40.2402 21.6092 35.2559 21.6092V23.1092C40.2888 23.1092 46.6275 22.6955 50.2887 22.0827L50.0411 20.6033ZM35.2559 21.6092C30.3138 21.6092 24.8595 20.7456 22.0821 20.329L21.8596 21.8124C24.6098 22.225 30.1806 23.1092 35.2559 23.1092V21.6092ZM20.3808 25.2527C20.0967 27.0922 19.8434 29.6639 19.8434 31.3272H21.3434C21.3434 29.7671 21.586 27.277 21.8632 25.4816L20.3808 25.2527ZM29.2303 47.5665C32.4167 49.0319 35.6014 49.457 38.7451 49.457V47.957C35.74 47.957 32.7867 47.551 29.8571 46.2037L29.2303 47.5665ZM38.7263 49.4567C42.5051 49.5516 45.8982 48.8523 49.1454 47.3234L48.5064 45.9663C45.4801 47.3912 42.32 48.0465 38.7639 47.9572L38.7263 49.4567ZM19.8434 31.3272C19.8434 32.1117 19.7816 33.0768 19.9314 34.3171C20.0831 35.5728 20.4477 37.1125 21.2794 39.1763L22.6706 38.6156C21.8805 36.6548 21.5542 35.2432 21.4206 34.1372C21.2851 33.0158 21.3434 32.2089 21.3434 31.3272H19.8434ZM57.9695 37.8056C58.9255 35.6264 59.4651 33.9251 59.7581 32.3225C60.0509 30.7215 60.0917 29.2487 60.0778 27.5488L58.5779 27.5611C58.5916 29.2328 58.5495 30.5929 58.2826 32.0527C58.016 33.5109 57.5192 35.0984 56.5959 37.203L57.9695 37.8056ZM21.2292 20.9595C21.151 21.4807 21.0131 22.0898 20.8522 22.822C20.6937 23.5429 20.5185 24.3603 20.3808 25.2527L21.8632 25.4816C21.9932 24.6393 22.1596 23.8613 22.3172 23.144C22.4723 22.438 22.6249 21.7663 22.7126 21.182L21.2292 20.9595ZM60.0778 27.5488C60.056 24.8941 59.712 22.2284 59.352 19.6572L57.8665 19.8652C58.2266 22.4372 58.557 25.0153 58.5779 27.5611L60.0778 27.5488ZM49.1454 47.3234C52.4576 45.7637 56.0226 42.2433 57.9695 37.8056L56.5959 37.203C54.7841 41.3328 51.4675 44.572 48.5064 45.9663L49.1454 47.3234ZM21.2794 39.1763C22.9805 43.3977 26.0182 46.0892 29.2303 47.5665L29.8571 46.2037C26.9533 44.8683 24.2132 42.4435 22.6706 38.6156L21.2794 39.1763Z" fill="#4D3D2F"/>
<path d="M36.3588 41.7802C38.0037 43.1462 40.25 43.125 41.875 41.5" stroke="#4D3D2F" stroke-width="1.5" stroke-linecap="round"/>
<path d="M21.1885 26.1178C27.0396 27.0784 33.5646 27.7384 39.6777 27.3891C45.1879 27.0742 50.9152 26.9889 58.775 25.0676" stroke="#4D3D2F" stroke-width="1.5" stroke-linecap="round"/>
<path d="M42.2186 35.6541C44.2757 35.6279 45.4136 34.3261 46.3507 33.0513M43.6867 35.4236C46.3966 35.2237 47.358 34.0484 48.2951 32.7736M45.9251 34.998C48.5676 34.575 49.2673 33.8152 50.309 32.218" stroke="#4D3D2F" stroke-linecap="round" stroke-linejoin="round"/>
<path d="M36.7621 35.6102C34.7442 35.5339 33.6598 34.2286 32.7716 32.9547M35.3273 35.3479C32.6732 35.0852 31.7587 33.9083 30.8706 32.6345M33.1414 34.8753C30.559 34.3954 29.891 33.6326 28.9082 32.0399" stroke="#4D3D2F" stroke-linecap="round" stroke-linejoin="round"/>
<path d="M57.7606 38.4789C60.875 38.125 63.125 36.875 63.875 33.125" stroke="#4D3D2F" stroke-width="2" stroke-linecap="round"/>
<path d="M61.7978 31.996C62.775 33.2525 65.4055 33.4925 66.4327 31.9681" stroke="#4D3D2F" stroke-width="2" stroke-linecap="round" stroke-linejoin="round"/>
<path d="M62.7918 47.1146C63.169 44.7151 64.0154 43.6697 65.7868 43.5864C67.5583 43.503 68.7146 44.7054 68.909 46.833" stroke="#4D3D2F" stroke-width="1.5" stroke-linecap="round" stroke-linejoin="round"/>
<path d="M65.8773 47.0256C66.0875 44.6056 66.8594 43.5042 68.6209 43.2984C70.3823 43.0925 71.6191 44.212 71.9604 46.321" stroke="#4D3D2F" stroke-width="1.5" stroke-linecap="round" stroke-linejoin="round"/>
<path d="M74.9781 46.8639C73.8123 46.9512 70.7859 47.2096 69.5012 47.26L71.4697 54.9018C71.8931 54.973 73.2369 54.9199 74.5779 54.8895C74.6934 53.0039 74.8177 49.2772 74.9781 46.8639Z" fill="#EE6A29" stroke="#4D3D2F" stroke-width="1.5" stroke-linecap="round" stroke-linejoin="round"/>
<path d="M60.0223 47.5561L71.9665 47.3647L71.4491 55.7318L60.1265 55.5105L60.0223 47.5561Z" fill="#EE6A29" stroke="#4D3D2F" stroke-width="1.5" stroke-linejoin="round"/>
<path d="M21.0139 38.4154C18.125 38.25 15.875 36.875 15.125 33.125" stroke="#4D3D2F" stroke-width="2" stroke-linecap="round"/>
<path d="M17.5261 31.996C16.5488 33.2525 13.9183 33.4925 12.8911 31.9681" stroke="#4D3D2F" stroke-width="2" stroke-linecap="round" stroke-linejoin="round"/>
</svg>
