<svg width="80" height="64" viewBox="0 0 80 64" fill="none" xmlns="http://www.w3.org/2000/svg">
<path d="M51.6093 17.7612L52.352 17.6572C52.3233 17.4524 52.2114 17.2686 52.0426 17.1491C51.8738 17.0296 51.6632 16.9851 51.4605 17.0261L51.6093 17.7612ZM43.1649 19.343L43.2887 20.0827L43.1649 19.343ZM14.9709 19.0707L15.0821 18.329C14.6725 18.2676 14.2906 18.5498 14.2292 18.9595L14.9709 19.0707ZM14.122 23.3671L14.8632 23.4816L14.8632 23.4816L14.122 23.3671ZM31.7451 46.707L31.7639 45.9572L31.7545 45.957H31.7451V46.707ZM52.3278 25.5549L53.0778 25.5488L52.3278 25.5549ZM51.4605 17.0261C50.4058 17.2396 46.6336 18.002 43.0411 18.6033L43.2887 20.0827C46.9086 19.4768 50.7028 18.7099 51.7581 18.4963L51.4605 17.0261ZM43.0411 18.6033C39.4897 19.1977 33.2402 19.6092 28.2559 19.6092V21.1092C33.2888 21.1092 39.6275 20.6955 43.2887 20.0827L43.0411 18.6033ZM28.2559 19.6092C23.3138 19.6092 17.8595 18.7456 15.0821 18.329L14.8596 19.8124C17.6098 20.225 23.1806 21.1092 28.2559 21.1092V19.6092ZM13.3808 23.2527C13.0967 25.0922 12.8434 27.6639 12.8434 29.3272H14.3434C14.3434 27.7671 14.586 25.277 14.8632 23.4816L13.3808 23.2527ZM22.2303 45.5665C25.4167 47.0319 28.6014 47.457 31.7451 47.457V45.957C28.74 45.957 25.7867 45.551 22.8571 44.2037L22.2303 45.5665ZM31.7263 47.4567C35.5051 47.5516 38.8982 46.8523 42.1454 45.3234L41.5064 43.9663C38.4801 45.3912 35.32 46.0465 31.7639 45.9572L31.7263 47.4567ZM12.8434 29.3272C12.8434 30.1117 12.7816 31.0768 12.9314 32.3171C13.0831 33.5728 13.4477 35.1125 14.2794 37.1763L15.6706 36.6156C14.8805 34.6548 14.5542 33.2432 14.4206 32.1372C14.2851 31.0158 14.3434 30.2089 14.3434 29.3272H12.8434ZM50.9695 35.8056C51.9255 33.6264 52.4651 31.9251 52.7581 30.3225C53.0509 28.7215 53.0917 27.2487 53.0778 25.5488L51.5779 25.5611C51.5916 27.2328 51.5495 28.5929 51.2826 30.0527C51.016 31.5109 50.5192 33.0984 49.5959 35.203L50.9695 35.8056ZM14.2292 18.9595C14.151 19.4807 14.0131 20.0898 13.8522 20.822C13.6937 21.5429 13.5185 22.3603 13.3808 23.2527L14.8632 23.4816C14.9932 22.6393 15.1596 21.8613 15.3172 21.144C15.4723 20.438 15.6249 19.7663 15.7126 19.182L14.2292 18.9595ZM53.0778 25.5488C53.056 22.8941 52.712 20.2284 52.352 17.6572L50.8665 17.8652C51.2266 20.4372 51.557 23.0153 51.5779 25.5611L53.0778 25.5488ZM42.1454 45.3234C45.4576 43.7637 49.0226 40.2433 50.9695 35.8056L49.5959 35.203C47.7841 39.3328 44.4675 42.572 41.5064 43.9663L42.1454 45.3234ZM14.2794 37.1763C15.9805 41.3977 19.0182 44.0892 22.2303 45.5665L22.8571 44.2037C19.9533 42.8683 17.2132 40.4435 15.6706 36.6156L14.2794 37.1763Z" fill="#4D3D2F"/>
<path d="M29.3588 39.7802C31.0037 41.1462 33.25 41.125 34.875 39.5" stroke="#4D3D2F" stroke-width="1.5" stroke-linecap="round"/>
<path d="M14.1885 24.1178C20.0396 25.0784 26.5646 25.7384 32.6777 25.3891C38.1879 25.0742 43.9152 24.9889 51.775 23.0676" stroke="#4D3D2F" stroke-width="1.5" stroke-linecap="round"/>
<path d="M50.8014 35.3385C53.0197 36.1939 54.7643 37.7332 55.4826 40.1962" stroke="#4D3D2F" stroke-width="2" stroke-linecap="round"/>
<path d="M14.0139 36.4154C11.5032 37.6707 10.3025 39.2535 9.10175 41.8733" stroke="#4D3D2F" stroke-width="2" stroke-linecap="round"/>
<path d="M21.3424 44.6448C19.75 46.5 19 48.25 19.125 51" stroke="#4D3D2F" stroke-width="2" stroke-linecap="round"/>
<path d="M42.3665 44.7049C43.875 46.5 44.75 48.5 44.625 51.25" stroke="#4D3D2F" stroke-width="2" stroke-linecap="round"/>
<path d="M21.3703 52.1732C20.8932 51.867 20.3332 51.7157 19.7667 51.74C17.3188 51.74 15.9861 52.8742 15.9861 53.6964C15.9861 54.5187 16.8746 55.5867 19.0957 55.5867C21.3168 55.5867 22.6494 54.3013 22.4321 53.4507C22.2183 52.9256 21.8475 52.4794 21.3703 52.1732Z" fill="#EE6A29" stroke="#4D3D2F" stroke-width="2" stroke-linecap="round"/>
<path d="M46.3208 52.2571C45.8437 51.9508 45.2836 51.7995 44.7172 51.8239C42.2692 51.8239 40.9366 52.958 40.9366 53.7803C40.9366 54.6026 41.825 55.6706 44.0461 55.6706C46.2672 55.6706 47.5999 54.3852 47.3825 53.5346C47.1687 53.0095 46.7979 52.5633 46.3208 52.2571Z" fill="#EE6A29" stroke="#4D3D2F" stroke-width="2" stroke-linecap="round"/>
<path d="M53.0882 46.9228C52.6406 44.5354 53.0882 43.2671 54.7296 42.5956C56.371 41.9241 57.8631 42.6702 58.7584 44.61" stroke="#4D3D2F" stroke-width="1.5" stroke-linecap="round" stroke-linejoin="round"/>
<path d="M55.966 45.8062C55.3541 43.4555 55.7128 42.1592 57.3038 41.3757C58.8947 40.5922 60.4349 41.2332 61.4624 43.1063" stroke="#4D3D2F" stroke-width="1.5" stroke-linecap="round" stroke-linejoin="round"/>
<path d="M64.4878 42.6078C63.4184 43.0803 60.653 44.3367 59.4593 44.8142L63.872 51.3563C64.2948 51.2817 65.5434 50.7819 66.7968 50.3045C66.2745 48.489 65.1443 44.9356 64.4878 42.6078Z" fill="#EE6A29" stroke="#4D3D2F" stroke-width="1.5" stroke-linecap="round" stroke-linejoin="round"/>
<path d="M50.6262 48.2658L61.8175 44.0877L64.1303 52.1454L53.3867 55.7265L50.6262 48.2658Z" fill="#EE6A29" stroke="#4D3D2F" stroke-width="1.5" stroke-linejoin="round"/>
<path d="M35.2186 33.6541C37.2757 33.6279 38.4136 32.3261 39.3507 31.0513M36.6867 33.4236C39.3966 33.2237 40.358 32.0484 41.2951 30.7736M38.9251 32.998C41.5676 32.575 42.2673 31.8152 43.309 30.218" stroke="#4D3D2F" stroke-linecap="round" stroke-linejoin="round"/>
<path d="M29.7621 33.6102C27.7442 33.5339 26.6598 32.2286 25.7716 30.9547M28.3273 33.3479C25.6732 33.0852 24.7587 31.9083 23.8706 30.6345M26.1414 32.8753C23.559 32.3954 22.891 31.6326 21.9082 30.0399" stroke="#4D3D2F" stroke-linecap="round" stroke-linejoin="round"/>
<path d="M11.5068 43.3779C10.5539 42.2306 8.05876 41.717 6.95801 43.625" stroke="#4D3D2F" stroke-width="2" stroke-linecap="round" stroke-linejoin="round"/>
<path d="M57.5079 41.6575C56.7483 40.3916 54.5331 41.0246 54.8496 42.5436" stroke="#4D3D2F" stroke-width="2" stroke-linecap="round" stroke-linejoin="round"/>
</svg>
